<svg width="20" height="20" viewBox="0 0 20 20" fill="none" xmlns="http://www.w3.org/2000/svg">
  <ellipse cx="10" cy="10" rx="6" ry="6" transform="rotate(90 10 10)"
    stroke="url(#paint0_linear_780_1919)" />
  <path
    d="M10 15.5C9.72386 15.5 9.5 15.7239 9.5 16C9.5 16.2761 9.72386 16.5 10 16.5L10 15.5ZM10 4.5C13.0376 4.5 15.5 6.96243 15.5 10L16.5 10C16.5 6.41015 13.5899 3.5 10 3.5L10 4.5ZM15.5 10C15.5 13.0376 13.0376 15.5 10 15.5L10 16.5C13.5899 16.5 16.5 13.5899 16.5 10L15.5 10Z"
    fill="url(#paint1_linear_780_1919)" />
  <path d="M16 10C16 6.68629 13.3137 4 10 4C6.68629 4 4 6.68629 4 10"
    stroke="url(#paint2_linear_780_1919)" />
  <g filter="url(#filter0_f_780_1919)">
    <ellipse cx="10" cy="10" rx="6" ry="6" transform="rotate(90 10 10)"
      stroke="url(#paint3_linear_780_1919)" />
    <path d="M10 16C13.3137 16 16 13.3137 16 10C16 6.68629 13.3137 4 10 4"
      stroke="url(#paint4_linear_780_1919)" />
    <path d="M16 10C16 6.68629 13.3137 4 10 4C6.68629 4 4 6.68629 4 10"
      stroke="url(#paint5_linear_780_1919)" />
  </g>
  <defs>
    <filter id="filter0_f_780_1919" x="0.5" y="0.5" width="19" height="19"
      filterUnits="userSpaceOnUse" color-interpolation-filters="sRGB">
      <feFlood flood-opacity="0" result="BackgroundImageFix" />
      <feBlend mode="normal" in="SourceGraphic" in2="BackgroundImageFix" result="shape" />
      <feGaussianBlur stdDeviation="1.5" result="effect1_foregroundBlur_780_1919" />
    </filter>
    <linearGradient id="paint0_linear_780_1919" x1="10" y1="4" x2="7" y2="13"
      gradientUnits="userSpaceOnUse">
      <stop stop-color="#B59DE8" />
      <stop offset="1" stop-color="#B59DE8" stop-opacity="0" />
    </linearGradient>
    <linearGradient id="paint1_linear_780_1919" x1="10" y1="16" x2="16" y2="8.2"
      gradientUnits="userSpaceOnUse">
      <stop stop-color="#FFF7FF" />
      <stop offset="1" stop-color="#B59DE8" stop-opacity="0" />
    </linearGradient>
    <linearGradient id="paint2_linear_780_1919" x1="12.5" y1="4.5" x2="5" y2="6"
      gradientUnits="userSpaceOnUse">
      <stop stop-color="#B8A0E9" />
      <stop offset="1" stop-color="#B59DE8" stop-opacity="0" />
    </linearGradient>
    <linearGradient id="paint3_linear_780_1919" x1="10" y1="4" x2="7" y2="13"
      gradientUnits="userSpaceOnUse">
      <stop stop-color="#B59DE8" />
      <stop offset="1" stop-color="#B59DE8" stop-opacity="0" />
    </linearGradient>
    <linearGradient id="paint4_linear_780_1919" x1="10" y1="16" x2="16" y2="8.2"
      gradientUnits="userSpaceOnUse">
      <stop stop-color="#FFF7FF" />
      <stop offset="1" stop-color="#B59DE8" stop-opacity="0" />
    </linearGradient>
    <linearGradient id="paint5_linear_780_1919" x1="16" y1="10" x2="3" y2="10"
      gradientUnits="userSpaceOnUse">
      <stop stop-color="#B8A0E9" />
      <stop offset="1" stop-color="#B59DE8" stop-opacity="0" />
    </linearGradient>
  </defs>
</svg>
  